<svg width="91" height="61" viewBox="0 0 91 61" fill="none" xmlns="http://www.w3.org/2000/svg">
<path d="M37.8128 25.3775C35.7032 26.4196 33.8617 27.352 32.3063 28.1565C29.0703 29.8202 27.193 30.8623 27.193 30.8623L32.7353 29.3448L38.0274 27.9005L39.3146 27.5531L56.5136 22.8545C50.8462 35.9814 44.5351 39.9854 42.4254 41.0092C41.9606 41.2286 41.6924 41.32 41.6924 41.32C41.6746 41.32 41.6567 41.32 41.6567 41.32C33.8259 41.6491 20.9892 35.8717 16.5732 34.4274L42.1751 51.083C60.0715 39.7111 73.6948 10.2394 73.6948 10.2394C60.5363 14.6638 47.2526 20.752 38.2955 25.1581C38.1346 25.2312 37.9737 25.3044 37.8128 25.3775Z" fill="#FF8A00"/>
<path d="M41.4594 35.433C41.2806 35.5061 41.1912 35.5244 41.1912 35.5244H41.1734C38.4022 35.3964 34.0578 32.9465 32.5381 32.2883L41.0482 38.9798C47.7169 35.5427 53.4201 25.5786 53.4201 25.5786C48.6466 26.7121 43.7836 28.4307 40.4761 29.7105C40.4225 29.7288 40.3688 29.747 40.2973 29.7836C39.5286 30.0761 38.8492 30.3504 38.2771 30.588C37.0792 31.0634 36.382 31.3742 36.382 31.3742L38.3843 31.0086L40.2973 30.6612L40.7622 30.5698L46.966 29.4728C44.5881 33.9338 42.2461 35.1404 41.4594 35.433Z" fill="url(#paint0_linear_207_8)"/>
<path d="M15.5718 33.0379C19.505 30.972 23.4025 28.8329 27.3179 26.7304C33.4144 23.4761 39.5289 20.2766 45.7684 17.3514C59.7851 10.7696 74.356 5.96127 90.25 5.10198C89.2666 4.68148 88.3191 4.20613 87.3179 3.85876C78.7363 0.82383 69.8685 -0.0354567 60.8042 0.0011087C58.7124 0.0011087 56.7279 0.257066 54.8328 0.750699C63.9687 2.03049 70.5301 4.27926 70.5301 4.27926C70.5301 4.27926 61.1796 1.73796 52.8304 1.35403C50.5241 2.17675 48.325 3.34684 46.2154 4.8643C45.4109 5.44935 44.5706 6.01611 43.7303 6.56459C46.0545 6.43662 48.5038 6.36348 51.0604 6.3452C58.4621 6.27207 65.4705 7.11308 65.4705 7.11308C65.4705 7.11308 57.9615 7.03994 53.7243 7.09479C49.4156 7.14964 45.3572 7.42388 41.7815 7.84438C39.9401 9.01447 38.0807 10.1663 36.2929 11.3912C34.6123 12.543 32.8602 13.6948 31.1439 14.9381C35.2559 13.8045 39.9758 12.6893 45.1427 11.6655C53.1701 10.0749 60.8936 9.48983 60.8936 9.48983C60.8936 9.48983 52.741 10.9524 48.1463 11.8666C40.101 13.4755 32.9675 15.5962 27.8721 17.5342C26.9782 18.3204 26.12 19.1614 25.3513 20.0389C21.8471 24.0611 14.6957 33.495 15.5718 33.0379Z" fill="url(#paint1_linear_207_8)"/>
<path d="M7.97357 35.177C6.72208 35.177 6.07846 35.5244 5.75665 36.1643L5.29181 36.0729C0.0176725 35.0307 -0.304139 37.1333 0.142821 38.9981C0.375241 38.2851 0.84008 38.0474 1.43007 38.1571C1.9843 38.2485 3.79002 39.6745 6.84723 41.2469C10.1369 43.0203 12.2465 44.6109 13.7841 46.2198C15.5004 46.0186 18.8258 46.2929 22.3657 47.2436C27.3359 48.5782 30.9116 50.2602 30.9116 50.2602C30.9116 50.2602 25.1726 48.1577 21.3288 47.6275C18.2537 47.207 15.858 47.1522 14.8925 47.4995C15.4468 48.1943 15.9295 48.9073 16.3764 49.6386C17.0022 49.7483 17.6458 49.8763 18.2894 50.0408C28.2298 52.4176 35.9712 56.842 35.9712 56.842C35.9712 56.842 29.231 53.5328 22.9915 52.0519C20.4885 51.4486 18.6291 51.1926 17.2525 51.1012C17.8246 52.0702 18.3967 53.094 19.0761 54.191C19.0761 54.191 19.1118 54.2093 19.1833 54.2641C25.4766 55.745 29.9462 57.6099 29.9462 57.6099C29.9462 57.6099 25.2263 56.1107 20.6673 55.2148C21.1142 55.5074 21.6327 55.873 22.1869 56.2935C22.3478 56.4215 22.5266 56.5129 22.7233 56.586C23.2239 56.7689 23.7423 56.97 24.2608 57.1894C27.0856 58.3412 29.6243 59.8586 30.0177 60.0963C30.4646 60.2974 31.0725 60.5717 31.7161 60.8093C32.7352 61.175 33.8794 61.0104 34.7376 60.3523C34.9342 60.1877 35.1309 60.0232 35.3276 59.8404C37.4372 57.7378 44.3025 59.8038 45.9295 58.7068L12.5862 35.4878C11.0844 35.2867 9.54687 35.177 7.97357 35.177Z" fill="#8F00FF"/>
<defs>
<linearGradient id="paint0_linear_207_8" x1="42.9791" y1="25.5786" x2="42.9791" y2="38.9798" gradientUnits="userSpaceOnUse">
<stop stop-color="white"/>
<stop offset="1" stop-color="white" stop-opacity="0"/>
</linearGradient>
<linearGradient id="paint1_linear_207_8" x1="85" y1="-12" x2="-81" y2="91" gradientUnits="userSpaceOnUse">
<stop stop-color="#FF8A00"/>
<stop offset="1" stop-color="#8F00FF"/>
</linearGradient>
</defs>
</svg>
