<svg width="502" height="45" viewBox="0 0 502 45" fill="none" xmlns="http://www.w3.org/2000/svg">
<path d="M24.165 15.895C22.24 22.715 20.37 29.59 18.445 36.41L0.075 44.11L12.12 0.769999H24.33L20.315 15.125H15.64L14.43 19.47H19.215L20.425 15.235C21.635 14.85 22.845 14.465 24.055 14.135L26.75 4.4H27.355L24.715 13.915C30.6 12.1 36.375 10.12 42.315 8.195L47.595 15.565L41.82 36.3L23.56 44L29.995 20.35L24.165 15.895ZM109.613 36.355L97.2377 44L87.3377 37.235L75.2377 44L61.3227 36.3L62.1477 33.275H61.7077L65.3377 20.24L82.7727 16.06L77.9327 33.275H78.3727L77.5477 36.3L86.4027 36.575L92.2327 15.785H93.6627L90.6377 12.485H69.1877L70.3427 8.36C81.2327 8.36 92.1227 8.36 103.068 8.36L109.943 15.785H108.458L102.738 36.41L109.613 36.355ZM78.8127 35.695L79.4727 33.275H79.0327L83.7627 16.28H84.4777L79.7477 33.275H80.1877L79.5277 35.695H78.8127ZM151.166 0.769999C147.811 12.65 144.511 24.53 141.211 36.41L138.956 37.4L139.836 34.1H137.196L135.876 38.665L124.546 43.395H139.176L139.011 44.11H122.841C126.856 29.645 130.871 15.18 134.886 0.769999H151.166ZM185.287 12.485L176.322 44.275L165.542 38.335L168.457 27.83H170.217L170.712 25.96H168.897L168.402 27.61H166.037C164.497 33.11 163.012 38.61 161.472 44.165H160.262C163.177 33.605 166.092 23.045 169.062 12.485H165.652L166.807 8.36H170.217L179.677 0.714997H200.742L199.752 4.235H185.507L184.352 8.36H195.627L194.472 12.485H185.287ZM210.416 31.405V27.115H223.726V31.405H210.416ZM262.845 16.335L257.29 36.3L275.385 36.465L260.535 44L241.065 36.3L246.785 15.565H262.68L263.56 12.485H247.775L253.495 8.36H277.09L282.92 15.565L266.86 21.56L262.845 16.335ZM318.978 0.769999C315.623 12.65 312.323 24.53 309.023 36.41L306.768 37.4L307.648 34.1H305.008L303.688 38.665L292.358 43.395H306.988L306.823 44.11H290.653C294.668 29.645 298.683 15.18 302.698 0.769999H318.978ZM350.954 44L329.779 36.3L335.554 15.565L353.814 8.36L358.819 10.175L357.169 16.06L351.669 15.95L347.819 29.755H350.569L351.009 28.215H352.824L352.439 29.755H350.569L350.184 31.295H343.089L342.374 33.825H346.719L346.004 36.3L353.044 36.41C355.464 27.83 357.884 19.305 360.249 10.725L374.989 16.115L369.214 36.85L350.954 44ZM437.022 36.355L424.647 44L414.747 37.235L402.647 44L388.732 36.3L390.437 30.085H390.822L394.892 15.565H402.262L403.142 12.485H393.792L394.947 8.36H413.152C411.117 15.62 409.137 22.825 407.102 30.085H406.717L404.957 36.3L413.812 36.575L415.627 30.085H415.792L421.842 8.415H438.067L432.072 30.085H431.907L430.147 36.41L437.022 36.355ZM439.222 8.36L433.172 30.085H433.007L431.467 35.53H431.302L432.787 30.085H432.952L439.002 8.36H439.222ZM475.111 36.41L480.831 15.895L472.526 20.35L468.071 36.3L475.111 36.41ZM474.946 0.769999C478.796 0.769999 482.646 0.769999 486.496 0.769999L482.701 14.41L484.956 15.18L484.351 17.27H486.716L487.376 15.015H485.121L489.081 0.769999H501.291L489.191 44.22L477.696 39.82L459.876 44L463.891 29.7H462.406L458.721 43.01L451.846 36.3L457.566 15.565L466.971 8.195L481.381 13.97L484.516 2.695H474.451L474.946 0.769999Z" fill="url(#paint0_linear_210_2)"/>
<defs>
<linearGradient id="paint0_linear_210_2" x1="250" y1="-2" x2="250" y2="127.766" gradientUnits="userSpaceOnUse">
<stop stop-color="#FF8A00"/>
<stop offset="1" stop-color="#BD00FF"/>
</linearGradient>
</defs>
</svg>
