<svg width="433" height="67" viewBox="0 0 433 67" fill="none" xmlns="http://www.w3.org/2000/svg">
<path d="M99.7891 50.0664C100.039 50.1211 100.164 50.2461 100.164 50.4414V54.5195H103.328C104.359 54.5195 105.086 53.9414 105.508 52.7852C105.594 52.5664 105.637 52.2578 105.637 51.8594V50.5C105.676 50.2266 105.793 50.0898 105.988 50.0898H106.105C106.309 50.0898 106.426 50.2383 106.457 50.5352V51.707C106.457 53.082 105.973 54.125 105.004 54.8359C105.973 55.3047 106.457 55.9453 106.457 56.7578V60.5547C106.457 60.8047 106.32 60.9531 106.047 61C105.812 61 105.676 60.8438 105.637 60.5312V56.7578C105.637 56.125 105.141 55.6719 104.148 55.3984C104.055 55.3594 103.887 55.3398 103.645 55.3398H100.164V60.625C100.164 60.8047 100.039 60.9297 99.7891 61C99.4922 61 99.3438 60.7891 99.3438 60.3672V50.6992C99.3438 50.2773 99.4922 50.0664 99.7891 50.0664ZM118.453 50.0898H118.524C118.836 50.0898 118.992 50.2539 118.992 50.582V58.0586C118.992 59.0273 119.887 59.6992 121.676 60.0742C121.934 60.0742 122.149 60.0859 122.32 60.1094C124.016 60.0312 125.102 59.4883 125.578 58.4805C125.625 58.3164 125.649 58.1758 125.649 58.0586V50.5117C125.711 50.2305 125.84 50.0898 126.035 50.0898H126.141C126.391 50.0898 126.531 50.2539 126.563 50.582V57.8828C126.563 59.4141 125.524 60.418 123.445 60.8945C123.211 60.9648 122.895 61 122.496 61H122.145C120.637 61 119.418 60.457 118.488 59.3711C118.207 58.9336 118.067 58.4727 118.067 57.9883V50.5117C118.129 50.2305 118.258 50.0898 118.453 50.0898ZM143.469 44.2773H147.289C147.711 44.2773 147.922 44.4258 147.922 44.7227V44.8281C147.922 45.0625 147.762 45.1992 147.442 45.2383H143.129C141.207 45.2383 139.887 45.7578 139.168 46.7969C139.043 47.0078 138.981 47.2539 138.981 47.5352V50.8047C140.043 49.9609 141.391 49.5391 143.024 49.5391C144.938 49.5391 146.41 50.1211 147.442 51.2852C147.762 51.7148 147.922 52.1211 147.922 52.5039V58C147.922 59.1719 146.969 60.0859 145.063 60.7422C144.399 60.9141 143.782 61 143.211 61H142.731C140.887 61 139.438 60.3711 138.383 59.1133C138.164 58.6914 138.055 58.3203 138.055 58V47.2422C138.055 46.2109 138.907 45.3477 140.61 44.6523C141.368 44.4023 142.321 44.2773 143.469 44.2773ZM138.981 52.8086V57.6602C138.981 58.8789 140.008 59.6602 142.063 60.0039C142.594 60.0508 142.903 60.0742 142.989 60.0742C144.535 60.0742 145.746 59.6406 146.621 58.7734C146.871 58.5156 146.996 58.1445 146.996 57.6602V52.9141C146.996 52.0156 146.438 51.3477 145.321 50.9102C144.586 50.6445 143.809 50.5117 142.989 50.5117C141.114 50.5117 139.817 51.0664 139.098 52.1758C139.02 52.4102 138.981 52.6211 138.981 52.8086ZM164.102 49.9375C166.43 50.0391 167.911 50.7656 168.543 52.1172C168.661 52.3359 168.719 52.5898 168.719 52.8789V55.5273C168.719 55.7695 168.54 55.9102 168.18 55.9492H160.375V58.1406C160.375 58.7578 160.997 59.3164 162.239 59.8164C162.965 60.0117 163.575 60.1094 164.067 60.1094C165.645 60.1094 166.813 59.6406 167.571 58.7031C167.696 58.5781 167.793 58.2695 167.864 57.7773C167.973 57.6367 168.09 57.5664 168.215 57.5664H168.333C168.528 57.5664 168.657 57.6953 168.719 57.9531V58.0586C168.719 59.293 167.731 60.2148 165.754 60.8242C165.223 60.9414 164.731 61 164.278 61H163.891C162.352 61 161.075 60.5117 160.059 59.5352C159.653 59.043 159.45 58.5508 159.45 58.0586V52.8789C159.45 51.7617 160.297 50.8867 161.993 50.2539C162.657 50.043 163.36 49.9375 164.102 49.9375ZM160.375 52.7969V55.0234H167.793V52.7969C167.793 52.2031 167.196 51.6562 166 51.1562C165.36 50.9609 164.75 50.8633 164.172 50.8633H163.997C162.497 50.8633 161.364 51.3203 160.598 52.2344C160.45 52.4688 160.375 52.6562 160.375 52.7969ZM184.958 49.8672H184.993C187.446 49.9453 189.008 50.7266 189.68 52.2109C189.758 52.5156 189.798 52.7812 189.798 53.0078V57.9883C189.798 59.3086 188.751 60.2617 186.657 60.8477C186.118 60.9648 185.61 61.0234 185.133 61.0234H184.817C183.411 61.0234 182.169 60.625 181.09 59.8281V64.3867C181.09 64.7227 180.923 64.8906 180.587 64.8906C180.298 64.8281 180.153 64.6602 180.153 64.3867V52.9023C180.153 51.6133 181.165 50.6719 183.188 50.0781C183.719 49.9375 184.309 49.8672 184.958 49.8672ZM181.09 52.9023V58.0938C181.09 58.7578 181.778 59.3477 183.153 59.8633C183.778 60.0117 184.294 60.0859 184.7 60.0859H185.169C186.794 60.0859 187.985 59.5664 188.743 58.5273C188.821 58.3164 188.86 58.1367 188.86 57.9883V52.9023C188.86 51.957 187.919 51.2812 186.036 50.875C185.778 50.8281 185.477 50.8047 185.133 50.8047H184.817C182.801 50.9062 181.571 51.5078 181.126 52.6094C181.102 52.7031 181.09 52.8008 181.09 52.9023ZM218.595 49.8672H218.958C220.669 49.8672 222.013 50.4297 222.989 51.5547C223.278 51.9844 223.423 52.3711 223.423 52.7148V52.9258C223.384 53.1914 223.251 53.3242 223.024 53.3242H222.919C222.645 53.3242 222.478 53 222.415 52.3516C221.665 51.2969 220.454 50.7695 218.782 50.7695C217.204 50.7695 216.013 51.25 215.208 52.2109C215.091 52.4453 215.032 52.6602 215.032 52.8555V58.082C215.032 58.7383 215.681 59.3164 216.978 59.8164C217.54 59.9805 218.103 60.0625 218.665 60.0625H218.853C220.829 59.9766 222.04 59.375 222.485 58.2578C222.485 57.7578 222.653 57.5078 222.989 57.5078C223.278 57.5703 223.423 57.7031 223.423 57.9062V58.082C223.423 59.1836 222.571 60.0469 220.868 60.6719C220.228 60.8906 219.52 61 218.747 61C216.825 61 215.384 60.375 214.423 59.125C214.204 58.7031 214.095 58.2969 214.095 57.9062V52.9609C214.095 51.4688 215.235 50.4727 217.517 49.9727C217.806 49.9023 218.165 49.8672 218.595 49.8672ZM239.415 49.9375C241.134 49.9375 242.446 50.5586 243.353 51.8008C243.54 52.2227 243.634 52.582 243.634 52.8789V60.5664C243.634 60.8086 243.478 60.9531 243.165 61C242.907 61 242.755 60.8203 242.708 60.4609V52.8789C242.708 52.0117 241.907 51.3672 240.306 50.9453C239.946 50.8906 239.65 50.8633 239.415 50.8633H239.263C237.849 50.8633 236.814 51.3438 236.157 52.3047C236.032 52.5 235.97 52.7383 235.97 53.0195V60.5664C235.97 60.8086 235.818 60.9531 235.513 61C235.2 61 235.044 60.7852 235.044 60.3555V53.2656C235.044 51.4375 236.275 50.3398 238.735 49.9727C238.962 49.9492 239.189 49.9375 239.415 49.9375ZM259.415 50.1602C261.033 50.1602 262.286 50.7109 263.177 51.8125C263.45 52.2109 263.587 52.6875 263.587 53.2422V57.9883C263.587 59.418 262.572 60.3867 260.54 60.8945C260.236 60.9648 259.884 61 259.486 61H259.275C257.611 61 256.349 60.4023 255.49 59.207C255.279 58.8242 255.173 58.418 255.173 57.9883V53.1719C255.173 51.8516 256.083 50.9062 257.904 50.3359C258.45 50.2188 258.954 50.1602 259.415 50.1602ZM256.087 53.0664V58.0938C256.087 58.9531 256.822 59.582 258.29 59.9805C258.587 60.043 258.95 60.0898 259.38 60.1211C260.786 60.1211 261.829 59.6523 262.509 58.7148C262.626 58.5117 262.685 58.3047 262.685 58.0938V53.0664C262.685 52.2305 261.947 51.6016 260.47 51.1797C260.118 51.1094 259.779 51.0742 259.45 51.0742H259.204C257.868 51.0742 256.865 51.5664 256.193 52.5508C256.122 52.7617 256.087 52.9336 256.087 53.0664ZM279.861 49.8672H279.896C282.349 49.9453 283.912 50.7266 284.583 52.2109C284.662 52.5156 284.701 52.7812 284.701 53.0078V57.9883C284.701 59.3086 283.654 60.2617 281.56 60.8477C281.021 60.9648 280.513 61.0234 280.037 61.0234H279.72C278.314 61.0234 277.072 60.625 275.994 59.8281V64.3867C275.994 64.7227 275.826 64.8906 275.49 64.8906C275.201 64.8281 275.056 64.6602 275.056 64.3867V52.9023C275.056 51.6133 276.068 50.6719 278.091 50.0781C278.622 49.9375 279.212 49.8672 279.861 49.8672ZM275.994 52.9023V58.0938C275.994 58.7578 276.681 59.3477 278.056 59.8633C278.681 60.0117 279.197 60.0859 279.603 60.0859H280.072C281.697 60.0859 282.888 59.5664 283.646 58.5273C283.724 58.3164 283.763 58.1367 283.763 57.9883V52.9023C283.763 51.957 282.822 51.2812 280.939 50.875C280.681 50.8281 280.38 50.8047 280.037 50.8047H279.72C277.705 50.9062 276.474 51.5078 276.029 52.6094C276.005 52.7031 275.994 52.8008 275.994 52.9023ZM296.673 49.9375H303.646C303.935 49.9375 304.08 50.1172 304.08 50.4766C303.986 50.7344 303.806 50.8633 303.541 50.8633H300.611V60.4609C300.564 60.8203 300.408 61 300.142 61C299.83 60.9531 299.673 60.8086 299.673 60.5664V50.8633H296.709C296.373 50.832 296.205 50.6914 296.205 50.4414V50.3359C296.205 50.1094 296.361 49.9766 296.673 49.9375ZM333.334 49.8672C335.396 49.8672 336.896 50.5391 337.834 51.8828C338.006 52.2422 338.092 52.5664 338.092 52.8555V58.4453C338.092 59.5547 337.045 60.3594 334.951 60.8594C334.451 60.9531 333.959 61 333.475 61H333.088C331.447 61 330.111 60.5664 329.08 59.6992C328.674 59.3008 328.471 58.8086 328.471 58.2227V56.4648C328.471 55.1445 329.49 54.2656 331.529 53.8281C332.045 53.7109 332.635 53.6523 333.299 53.6523C334.846 53.6523 336.119 53.9883 337.119 54.6602H337.154V52.7852C337.154 52.1211 336.459 51.5312 335.068 51.0156C334.428 50.875 333.873 50.8047 333.404 50.8047H333.264C331.631 50.8047 330.428 51.2617 329.654 52.1758C329.529 52.332 329.424 52.668 329.338 53.1836C329.182 53.3008 329.037 53.3594 328.904 53.3594C328.615 53.2578 328.471 53.1016 328.471 52.8906C328.471 51.7344 329.322 50.8477 331.025 50.2305C331.705 49.9883 332.475 49.8672 333.334 49.8672ZM329.408 56.3477V58.4102C329.408 59.1367 330.369 59.6758 332.291 60.0273L333.264 60.0977C334.826 60.0977 336.037 59.7266 336.896 58.9844C337.068 58.7891 337.154 58.6094 337.154 58.4453V56.207C337.154 55.6445 336.447 55.1641 335.033 54.7656C334.525 54.6484 333.994 54.5898 333.439 54.5898H333.041C331.611 54.5898 330.482 54.9609 329.654 55.7031C329.49 55.875 329.408 56.0898 329.408 56.3477ZM354.424 49.8672H354.459C356.912 49.9453 358.475 50.7266 359.147 52.2109C359.225 52.5156 359.264 52.7812 359.264 53.0078V57.9883C359.264 59.3086 358.217 60.2617 356.123 60.8477C355.584 60.9648 355.076 61.0234 354.6 61.0234H354.283C352.877 61.0234 351.635 60.625 350.557 59.8281V64.3867C350.557 64.7227 350.389 64.8906 350.053 64.8906C349.764 64.8281 349.619 64.6602 349.619 64.3867V52.9023C349.619 51.6133 350.631 50.6719 352.654 50.0781C353.186 49.9375 353.775 49.8672 354.424 49.8672ZM350.557 52.9023V58.0938C350.557 58.7578 351.244 59.3477 352.619 59.8633C353.244 60.0117 353.76 60.0859 354.166 60.0859H354.635C356.26 60.0859 357.451 59.5664 358.209 58.5273C358.287 58.3164 358.326 58.1367 358.326 57.9883V52.9023C358.326 51.957 357.385 51.2812 355.502 50.875C355.244 50.8281 354.943 50.8047 354.6 50.8047H354.283C352.268 50.9062 351.037 51.5078 350.592 52.6094C350.568 52.7031 350.557 52.8008 350.557 52.9023ZM375.42 49.9375C377.748 50.0391 379.229 50.7656 379.862 52.1172C379.979 52.3359 380.037 52.5898 380.037 52.8789V55.5273C380.037 55.7695 379.858 55.9102 379.498 55.9492H371.694V58.1406C371.694 58.7578 372.315 59.3164 373.557 59.8164C374.283 60.0117 374.893 60.1094 375.385 60.1094C376.963 60.1094 378.131 59.6406 378.889 58.7031C379.014 58.5781 379.112 58.2695 379.182 57.7773C379.291 57.6367 379.408 57.5664 379.533 57.5664H379.651C379.846 57.5664 379.975 57.6953 380.037 57.9531V58.0586C380.037 59.293 379.049 60.2148 377.073 60.8242C376.541 60.9414 376.049 61 375.596 61H375.209C373.67 61 372.393 60.5117 371.377 59.5352C370.971 59.043 370.768 58.5508 370.768 58.0586V52.8789C370.768 51.7617 371.615 50.8867 373.311 50.2539C373.975 50.043 374.678 49.9375 375.42 49.9375ZM371.694 52.7969V55.0234H379.112V52.7969C379.112 52.2031 378.514 51.6562 377.319 51.1562C376.678 50.9609 376.069 50.8633 375.49 50.8633H375.315C373.815 50.8633 372.682 51.3203 371.916 52.2344C371.768 52.4688 371.694 52.6562 371.694 52.7969ZM391.928 50.207H391.963C392.268 50.2461 392.42 50.3867 392.42 50.6289V55.1758H398.479V50.5938C398.479 50.3984 398.608 50.2695 398.866 50.207H398.971C399.229 50.2617 399.358 50.3906 399.358 50.5938V60.6133C399.319 60.8711 399.19 61 398.971 61H398.866C398.608 60.9609 398.479 60.832 398.479 60.6133V56.0898H392.42V60.5781C392.358 60.8594 392.229 61 392.034 61H391.928C391.678 61 391.538 60.8359 391.506 60.5078V50.6992C391.538 50.3711 391.678 50.207 391.928 50.207ZM415.772 49.8672C417.835 49.8672 419.335 50.5391 420.272 51.8828C420.444 52.2422 420.53 52.5664 420.53 52.8555V58.4453C420.53 59.5547 419.483 60.3594 417.389 60.8594C416.889 60.9531 416.397 61 415.913 61H415.526C413.885 61 412.549 60.5664 411.518 59.6992C411.112 59.3008 410.909 58.8086 410.909 58.2227V56.4648C410.909 55.1445 411.928 54.2656 413.967 53.8281C414.483 53.7109 415.073 53.6523 415.737 53.6523C417.284 53.6523 418.557 53.9883 419.557 54.6602H419.592V52.7852C419.592 52.1211 418.897 51.5312 417.506 51.0156C416.866 50.875 416.311 50.8047 415.842 50.8047H415.702C414.069 50.8047 412.866 51.2617 412.092 52.1758C411.967 52.332 411.862 52.668 411.776 53.1836C411.62 53.3008 411.475 53.3594 411.342 53.3594C411.053 53.2578 410.909 53.1016 410.909 52.8906C410.909 51.7344 411.76 50.8477 413.463 50.2305C414.143 49.9883 414.913 49.8672 415.772 49.8672ZM411.846 56.3477V58.4102C411.846 59.1367 412.807 59.6758 414.729 60.0273L415.702 60.0977C417.264 60.0977 418.475 59.7266 419.335 58.9844C419.506 58.7891 419.592 58.6094 419.592 58.4453V56.207C419.592 55.6445 418.885 55.1641 417.471 54.7656C416.963 54.6484 416.432 54.5898 415.878 54.5898H415.479C414.049 54.5898 412.92 54.9609 412.092 55.7031C411.928 55.875 411.846 56.0898 411.846 56.3477Z" fill="white"/>
<path d="M111.911 12.093C110.616 16.681 109.358 21.306 108.063 25.894L95.705 31.074L103.808 1.918H112.022L109.321 11.575H106.176L105.362 14.498H108.581L109.395 11.649C110.209 11.39 111.023 11.131 111.837 10.909L113.65 4.36H114.057L112.281 10.761C116.24 9.54 120.125 8.208 124.121 6.913L127.673 11.871L123.788 25.82L111.504 31L115.833 15.09L111.911 12.093ZM169.394 25.857L161.069 31L154.409 26.449L146.269 31L136.908 25.82L137.463 23.785H137.167L139.609 15.016L151.338 12.204L148.082 23.785H148.378L147.823 25.82L153.78 26.005L157.702 12.019H158.664L156.629 9.799H142.199L142.976 7.024C150.302 7.024 157.628 7.024 164.991 7.024L169.616 12.019H168.617L164.769 25.894L169.394 25.857ZM148.674 25.413L149.118 23.785H148.822L152.004 12.352H152.485L149.303 23.785H149.599L149.155 25.413H148.674ZM197.348 1.918C195.091 9.91 192.871 17.902 190.651 25.894L189.134 26.56L189.726 24.34H187.95L187.062 27.411L179.44 30.593H189.282L189.171 31.074H178.293C180.994 21.343 183.695 11.612 186.396 1.918H197.348ZM220.303 9.799L214.272 31.185L207.02 27.189L208.981 20.122H210.165L210.498 18.864H209.277L208.944 19.974H207.353C206.317 23.674 205.318 27.374 204.282 31.111H203.468C205.429 24.007 207.39 16.903 209.388 9.799H207.094L207.871 7.024H210.165L216.529 1.881H230.7L230.034 4.249H220.451L219.674 7.024H227.259L226.482 9.799H220.303ZM237.207 22.527V19.641H246.161V22.527H237.207ZM272.478 12.389L268.741 25.82L280.914 25.931L270.924 31L257.826 25.82L261.674 11.871H272.367L272.959 9.799H262.34L266.188 7.024H282.061L285.983 11.871L275.179 15.904L272.478 12.389ZM310.24 1.918C307.983 9.91 305.763 17.902 303.543 25.894L302.026 26.56L302.618 24.34H300.842L299.954 27.411L292.332 30.593H302.174L302.063 31.074H291.185C293.886 21.343 296.587 11.612 299.288 1.918H310.24ZM331.751 31L317.506 25.82L321.391 11.871L333.675 7.024L337.042 8.245L335.932 12.204L332.232 12.13L329.642 21.417H331.492L331.788 20.381H333.009L332.75 21.417H331.492L331.233 22.453H326.46L325.979 24.155H328.902L328.421 25.82L333.157 25.894C334.785 20.122 336.413 14.387 338.004 8.615L347.92 12.241L344.035 26.19L331.751 31ZM389.651 25.857L381.326 31L374.666 26.449L366.526 31L357.165 25.82L358.312 21.639H358.571L361.309 11.871H366.267L366.859 9.799H360.569L361.346 7.024H373.593C372.224 11.908 370.892 16.755 369.523 21.639H369.264L368.08 25.82L374.037 26.005L375.258 21.639H375.369L379.439 7.061H390.354L386.321 21.639H386.21L385.026 25.894L389.651 25.857ZM391.131 7.024L387.061 21.639H386.95L385.914 25.302H385.803L386.802 21.639H386.913L390.983 7.024H391.131ZM415.275 25.894L419.123 12.093L413.536 15.09L410.539 25.82L415.275 25.894ZM415.164 1.918C417.754 1.918 420.344 1.918 422.934 1.918L420.381 11.094L421.898 11.612L421.491 13.018H423.082L423.526 11.501H422.009L424.673 1.918H432.887L424.747 31.148L417.014 28.188L405.026 31L407.727 21.38H406.728L404.249 30.334L399.624 25.82L403.472 11.871L409.799 6.913L419.493 10.798L421.602 3.213H414.831L415.164 1.918Z" fill="white"/>
<path d="M37.8128 26.3775C35.7032 27.4196 33.8617 28.352 32.3063 29.1565C29.0703 30.8202 27.193 31.8623 27.193 31.8623L32.7353 30.3448L38.0274 28.9005L39.3146 28.5531L56.5136 23.8545C50.8462 36.9814 44.5351 40.9854 42.4254 42.0092C41.9606 42.2286 41.6924 42.32 41.6924 42.32C41.6746 42.32 41.6567 42.32 41.6567 42.32C33.8259 42.6491 20.9892 36.8717 16.5732 35.4274L42.1751 52.083C60.0715 40.7111 73.6948 11.2394 73.6948 11.2394C60.5363 15.6638 47.2526 21.752 38.2955 26.1581C38.1346 26.2312 37.9737 26.3044 37.8128 26.3775Z" fill="#FF8A00"/>
<path d="M41.4594 36.433C41.2806 36.5061 41.1912 36.5244 41.1912 36.5244H41.1734C38.4022 36.3964 34.0578 33.9465 32.5381 33.2883L41.0482 39.9798C47.7169 36.5427 53.4201 26.5786 53.4201 26.5786C48.6466 27.7121 43.7836 29.4307 40.4761 30.7105C40.4225 30.7288 40.3688 30.747 40.2973 30.7836C39.5286 31.0761 38.8492 31.3504 38.2771 31.588C37.0792 32.0634 36.382 32.3742 36.382 32.3742L38.3843 32.0086L40.2973 31.6612L40.7622 31.5698L46.966 30.4728C44.5881 34.9338 42.2461 36.1404 41.4594 36.433Z" fill="url(#paint0_linear_208_29)"/>
<path d="M15.5718 34.0379C19.505 31.972 23.4025 29.8329 27.3179 27.7304C33.4144 24.4761 39.5289 21.2766 45.7684 18.3514C59.7851 11.7696 74.356 6.96127 90.25 6.10198C89.2666 5.68148 88.3191 5.20613 87.3179 4.85876C78.7363 1.82383 69.8685 0.964543 60.8042 1.00111C58.7124 1.00111 56.7279 1.25707 54.8328 1.7507C63.9687 3.03049 70.5301 5.27926 70.5301 5.27926C70.5301 5.27926 61.1796 2.73796 52.8304 2.35403C50.5241 3.17675 48.325 4.34684 46.2154 5.8643C45.4109 6.44935 44.5706 7.01611 43.7303 7.56459C46.0545 7.43662 48.5038 7.36348 51.0604 7.3452C58.4621 7.27207 65.4705 8.11308 65.4705 8.11308C65.4705 8.11308 57.9615 8.03994 53.7243 8.09479C49.4156 8.14964 45.3572 8.42388 41.7815 8.84438C39.9401 10.0145 38.0807 11.1663 36.2929 12.3912C34.6123 13.543 32.8602 14.6948 31.1439 15.9381C35.2559 14.8045 39.9758 13.6893 45.1427 12.6655C53.1701 11.0749 60.8936 10.4898 60.8936 10.4898C60.8936 10.4898 52.741 11.9524 48.1463 12.8666C40.101 14.4755 32.9675 16.5962 27.8721 18.5342C26.9782 19.3204 26.12 20.1614 25.3513 21.0389C21.8471 25.0611 14.6957 34.495 15.5718 34.0379Z" fill="url(#paint1_linear_208_29)"/>
<path d="M7.97357 36.177C6.72208 36.177 6.07846 36.5244 5.75665 37.1643L5.29181 37.0729C0.0176725 36.0307 -0.304139 38.1333 0.142821 39.9981C0.375241 39.2851 0.84008 39.0474 1.43007 39.1571C1.9843 39.2485 3.79002 40.6745 6.84723 42.2469C10.1369 44.0203 12.2465 45.6109 13.7841 47.2198C15.5004 47.0186 18.8258 47.2929 22.3657 48.2436C27.3359 49.5782 30.9116 51.2602 30.9116 51.2602C30.9116 51.2602 25.1726 49.1577 21.3288 48.6275C18.2537 48.207 15.858 48.1522 14.8925 48.4995C15.4468 49.1943 15.9295 49.9073 16.3764 50.6386C17.0022 50.7483 17.6458 50.8763 18.2894 51.0408C28.2298 53.4176 35.9712 57.842 35.9712 57.842C35.9712 57.842 29.231 54.5328 22.9915 53.0519C20.4885 52.4486 18.6291 52.1926 17.2525 52.1012C17.8246 53.0702 18.3967 54.094 19.0761 55.191C19.0761 55.191 19.1118 55.2093 19.1833 55.2641C25.4766 56.745 29.9462 58.6099 29.9462 58.6099C29.9462 58.6099 25.2263 57.1107 20.6673 56.2148C21.1142 56.5074 21.6327 56.873 22.1869 57.2935C22.3478 57.4215 22.5266 57.5129 22.7233 57.586C23.2239 57.7689 23.7423 57.97 24.2608 58.1894C27.0856 59.3412 29.6243 60.8586 30.0177 61.0963C30.4646 61.2974 31.0725 61.5717 31.7161 61.8093C32.7352 62.175 33.8794 62.0104 34.7376 61.3523C34.9342 61.1877 35.1309 61.0232 35.3276 60.8404C37.4372 58.7378 44.3025 60.8038 45.9295 59.7068L12.5862 36.4878C11.0844 36.2867 9.54687 36.177 7.97357 36.177Z" fill="#8F00FF"/>
<defs>
<linearGradient id="paint0_linear_208_29" x1="42.9791" y1="26.5786" x2="42.9791" y2="39.9798" gradientUnits="userSpaceOnUse">
<stop stop-color="white"/>
<stop offset="1" stop-color="white" stop-opacity="0"/>
</linearGradient>
<linearGradient id="paint1_linear_208_29" x1="85" y1="-11" x2="-81" y2="92" gradientUnits="userSpaceOnUse">
<stop stop-color="#FF8A00"/>
<stop offset="1" stop-color="#8F00FF"/>
</linearGradient>
</defs>
</svg>
